<?xml version="1.0" encoding="UTF-8"?> <svg xmlns="http://www.w3.org/2000/svg" width="83" height="80" viewBox="0 0 83 80" fill="none"><g clip-path="url(#clip0_10360_2540)"><path d="M41.2584 80C63.0803 80 80.7706 62.0914 80.7706 40C80.7706 17.9086 63.0803 0 41.2584 0C19.4364 0 1.74622 17.9086 1.74622 40C1.74622 62.0914 19.4364 80 41.2584 80Z" fill="#3AA6DE"></path><path d="M41.855 17.8602C51.0896 17.8602 59.0844 24.0922 60.8762 32.7436L61.9327 37.767L67.3537 38.1388C72.8669 38.464 77.1859 42.8835 77.1859 48.0922C77.1859 53.6271 72.4081 58.1854 66.6183 58.1854H20.7209C12.9104 58.1854 6.61627 52.1854 6.61627 44.7436C6.61627 37.8602 12.0373 32.1388 19.159 31.3951L22.926 31.0233L24.6722 27.8136C28.0259 21.6737 34.5966 17.8602 41.855 17.8602Z" fill="white"></path><path d="M41.304 11.5349C31.3796 11.5349 22.7426 16.8835 18.4236 24.7436C8.08597 25.8136 0 34.1398 0 44.2786C0 55.1155 9.23459 63.9068 20.6287 63.9068H65.3786C74.8887 63.9068 82.5614 56.5583 82.5614 47.5349C82.5614 38.8835 75.4863 31.9068 66.5728 31.3019C64.2299 20.0456 53.8001 11.5349 41.3029 11.5349H41.304ZM41.304 18.0932C50.3086 18.0932 58.0735 24.1864 59.8654 32.6049L60.8762 37.5349L66.1595 37.9068C71.535 38.232 75.7162 42.5116 75.7162 47.5816C75.7162 52.9767 71.0761 57.3951 65.3786 57.3951H20.6287C13.0482 57.3951 6.84516 51.5349 6.84516 44.2786C6.89073 37.5805 12.1284 32 19.1124 31.3019L22.7882 30.9301L24.4878 27.8136C27.796 21.8136 34.1823 18.0922 41.3029 18.0922" fill="#19518E"></path><path d="M104.064 40.2786C104.064 42.4184 104.386 44.4184 105.075 46.1854C105.718 47.9523 106.684 49.5339 107.923 50.8369C109.164 52.1388 110.634 53.1621 112.38 53.9068C114.126 54.6515 116.009 55.0233 118.169 55.0233C120.282 55.0233 122.212 54.6515 123.958 53.9068C125.704 53.1621 127.173 52.1398 128.414 50.8369C129.655 49.535 130.574 47.9534 131.263 46.1854C131.906 44.4174 132.273 42.4184 132.273 40.2786C132.273 38.1854 131.951 36.1854 131.263 34.4184C130.619 32.6049 129.654 31.0699 128.414 29.7203C127.173 28.4184 125.704 27.3951 123.958 26.6504C122.211 25.9057 120.328 25.5339 118.169 25.5339C116.055 25.5339 114.125 25.9057 112.38 26.6504C110.634 27.3941 109.164 28.4174 107.923 29.7203C106.683 31.0223 105.764 32.6038 105.075 34.4184C104.432 36.232 104.064 38.1854 104.064 40.2786ZM93.7266 40.2786C93.7266 36.6038 94.3242 33.3019 95.564 30.3252C96.7582 27.3485 98.4588 24.8369 100.618 22.7436C102.778 20.6504 105.351 19.0689 108.337 17.9068C111.323 16.7903 114.585 16.232 118.123 16.232C121.661 16.232 124.923 16.7903 127.91 17.9068C130.896 19.0233 133.47 20.6515 135.628 22.7436C137.787 24.8358 139.487 27.3485 140.683 30.3252C141.877 33.3019 142.52 36.6038 142.52 40.2786C142.52 43.9534 141.922 47.2553 140.683 50.232C139.488 53.2087 137.788 55.7203 135.628 57.8136C133.469 59.9068 130.896 61.4883 127.91 62.6504C124.924 63.767 121.661 64.3252 118.123 64.3252C114.585 64.3252 111.324 63.767 108.337 62.6504C105.351 61.5339 102.778 59.9057 100.618 57.8136C98.4588 55.7203 96.7592 53.2087 95.564 50.232C94.3231 47.2553 93.7266 43.9534 93.7266 40.2786ZM143.254 31.767H152.443V36.0456H152.581C152.857 35.4407 153.316 34.8358 153.867 34.232C154.418 33.6271 155.062 33.0689 155.844 32.6038C156.625 32.1388 157.498 31.7203 158.462 31.4407C159.427 31.1621 160.484 30.9757 161.632 30.9757C164.067 30.9757 165.997 31.3475 167.513 32.0922C168.983 32.8358 170.178 33.9057 171.005 35.2087C171.831 36.5572 172.383 38.1388 172.704 39.9068C172.98 41.7203 173.164 43.6737 173.164 45.767V63.0689H163.607V47.6737C163.607 46.7903 163.562 45.8136 163.515 44.8835C163.47 43.9068 163.24 43.0233 162.964 42.1854C162.642 41.3485 162.138 40.697 161.495 40.1854C160.851 39.6737 159.886 39.3951 158.646 39.3951C157.407 39.3951 156.395 39.6282 155.66 40.0932C154.879 40.5583 154.328 41.1631 153.914 41.9068C153.501 42.6504 153.225 43.5349 153.133 44.465C152.995 45.3951 152.949 46.4184 152.949 47.4417V63.0699H143.392V31.768H143.254V31.767ZM196.366 43.9068C196.411 42.2786 195.86 40.8835 194.757 39.7203C193.654 38.5572 192.23 37.9534 190.485 37.9534C189.428 37.9534 188.463 38.1398 187.682 38.465C186.856 38.7903 186.166 39.2553 185.615 39.767C185.017 40.3252 184.604 40.9301 184.283 41.6271C183.961 42.3252 183.777 43.0689 183.732 43.8602H196.367L196.366 43.9068ZM204.498 57.7203C202.982 59.7203 201.052 61.2087 198.709 62.3252C196.367 63.3951 193.932 63.9534 191.45 63.9534C189.061 63.9534 186.81 63.5816 184.696 62.7903C182.583 62 180.745 60.8835 179.228 59.4417C177.666 58 176.472 56.2786 175.553 54.232C174.679 52.1854 174.221 49.9534 174.221 47.4417C174.221 44.9301 174.68 42.6981 175.553 40.6515C176.426 38.6049 177.666 36.8845 179.228 35.4417C180.79 34 182.629 32.8835 184.696 32.0932C186.81 31.3029 189.061 30.9301 191.45 30.9301C193.655 30.9301 195.677 31.3019 197.469 32.0932C199.26 32.8845 200.822 34 202.063 35.4417C203.304 36.8835 204.268 38.6049 204.958 40.6515C205.648 42.6981 205.969 44.9301 205.969 47.4417V50.465H183.777C184.145 52.3252 184.972 53.8136 186.258 54.8835C187.544 56 189.106 56.5116 190.99 56.5116C192.552 56.5116 193.885 56.1398 194.987 55.4417C196.09 54.7436 197.009 53.8136 197.835 52.697L204.498 57.7203Z" fill="#3AA6DE"></path><path d="M248.788 56.465C248.007 57.6282 247.089 58.7437 245.94 59.767C244.791 60.7903 243.505 61.6738 242.081 62.4651C240.611 63.2097 239.048 63.8136 237.394 64.232C235.694 64.6504 233.948 64.8835 232.064 64.8835C228.711 64.8835 225.586 64.2786 222.692 63.0699C219.797 61.8602 217.316 60.1864 215.202 58.0466C213.089 55.9068 211.436 53.3951 210.24 50.4651C209.046 47.535 208.448 44.3252 208.448 40.8369C208.448 37.3485 209.046 34.1388 210.24 31.2087C211.434 28.2786 213.089 25.767 215.202 23.6271C217.316 21.4873 219.797 19.8136 222.692 18.6038C225.587 17.3951 228.665 16.7903 232.064 16.7903C234.867 16.7903 237.67 17.3485 240.472 18.4651C243.275 19.5816 245.664 21.4418 247.685 24L243.642 27.0233C243.182 26.2797 242.539 25.5816 241.712 24.8369C240.886 24.0922 239.966 23.4418 238.956 22.8835C237.9 22.3252 236.796 21.8602 235.602 21.535C234.408 21.2097 233.213 21.0233 232.019 21.0233C229.124 21.0233 226.551 21.5816 224.254 22.6515C221.957 23.7214 220.027 25.1631 218.418 26.9767C216.81 28.7903 215.616 30.8835 214.743 33.2553C213.87 35.6271 213.456 38.1388 213.456 40.7903C213.456 43.4417 213.87 45.9068 214.743 48.3252C215.616 50.6971 216.81 52.8369 218.418 54.6038C220.027 56.3708 221.957 57.8591 224.254 58.9291C226.551 59.999 229.124 60.5572 232.019 60.5572C233.213 60.5572 234.408 60.464 235.557 60.232C236.705 59.999 237.854 59.6271 239.003 59.1155C240.151 58.6038 241.208 57.9058 242.173 57.0223C243.184 56.1388 244.103 55.0223 244.93 53.6738L248.789 56.464L248.788 56.465ZM250.213 63.7204H254.44V14.8835H250.213V63.7204ZM283.615 53.3019C283.109 54.7903 282.328 56.0456 281.363 57.1155C280.398 58.1854 279.204 59.0689 277.825 59.6738C276.446 60.2786 274.885 60.6038 273.138 60.6038C271.392 60.6038 269.83 60.2786 268.452 59.6738C267.073 59.0223 265.924 58.1854 264.96 57.1155C263.995 56.0456 263.26 54.7437 262.708 53.3019C262.203 51.8602 261.928 50.2786 261.928 48.6038C261.928 46.9291 262.157 45.3475 262.708 43.9058C263.259 42.4174 263.995 41.1621 264.96 40.0922C265.879 39.0223 267.073 38.1388 268.452 37.5339C269.83 36.9291 271.392 36.6038 273.138 36.6038C274.885 36.6038 276.446 36.9291 277.825 37.5339C279.204 38.1854 280.398 39.0223 281.363 40.0922C282.328 41.1621 283.063 42.464 283.615 43.9058C284.12 45.3475 284.396 46.9291 284.396 48.6038C284.396 50.2786 284.166 51.8136 283.615 53.3019ZM287.842 42.2786C287.015 40.3718 285.958 38.6971 284.533 37.2553C283.109 35.8136 281.455 34.6971 279.526 33.9068C277.549 33.1165 275.437 32.6971 273.094 32.6971C270.796 32.6971 268.684 33.1155 266.753 33.9068C264.823 34.7437 263.169 35.8136 261.745 37.2553C260.321 38.6505 259.218 40.3252 258.437 42.2786C257.656 44.232 257.243 46.3252 257.243 48.6038C257.243 50.8825 257.656 52.9757 258.437 54.9291C259.264 56.8358 260.321 58.5106 261.745 59.9524C263.169 61.3941 264.823 62.5106 266.753 63.3009C268.683 64.0912 270.796 64.5106 273.094 64.5106C275.437 64.5106 277.596 64.0922 279.526 63.3009C281.455 62.464 283.109 61.3941 284.533 59.9524C285.958 58.5572 287.061 56.8825 287.842 54.9291C288.622 52.9757 289.036 50.8825 289.036 48.6038C289.036 46.2786 288.622 44.1854 287.842 42.2786ZM312.514 63.6748H316.741C316.648 62.5583 316.557 61.3962 316.511 60.1398C316.465 58.8845 316.418 57.8612 316.418 57.0233V33.4417H312.192V48.9301C312.192 51.6748 311.778 53.8602 310.905 55.3951C310.078 56.9301 309.113 58.0932 308.01 58.8835C306.954 59.6738 305.897 60.1388 304.932 60.3252C303.967 60.5117 303.37 60.6038 303.14 60.6038C301.578 60.6038 300.292 60.3708 299.236 59.9058C298.179 59.4407 297.352 58.7892 296.755 57.9058C296.157 57.0223 295.744 55.9524 295.469 54.6504C295.239 53.3485 295.101 51.8602 295.101 50.1854V33.4407H290.874V52.696C290.874 56.463 291.793 59.3941 293.631 61.4407C295.469 63.4873 298.318 64.5106 302.131 64.5106C303.141 64.5106 304.107 64.3708 305.117 64.0922C306.127 63.8136 307.092 63.4407 307.965 62.9291C308.883 62.464 309.664 61.8591 310.4 61.1621C311.135 60.464 311.732 59.7204 312.192 58.8835H312.329C312.329 59.7204 312.375 60.5117 312.375 61.3019C312.375 62.0922 312.421 62.8835 312.513 63.7204V63.6738L312.514 63.6748ZM324 43.9068C324.505 42.4184 325.286 41.1631 326.252 40.0932C327.217 39.0233 328.411 38.1398 329.79 37.535C331.168 36.9301 332.73 36.6049 334.476 36.6049C336.223 36.6049 337.785 36.9301 339.254 37.535C340.724 38.1864 342.01 39.0233 343.068 40.0932C344.124 41.1631 344.952 42.4651 345.548 43.9068C346.146 45.3485 346.422 46.9301 346.422 48.6049C346.422 50.2797 346.146 51.8602 345.548 53.303C344.951 54.7913 344.124 56.0466 343.068 57.1165C342.011 58.1864 340.725 59.0699 339.254 59.6748C337.785 60.2797 336.176 60.6049 334.476 60.6049C332.73 60.6049 331.168 60.2797 329.79 59.6748C328.411 59.0233 327.217 58.1864 326.252 57.1165C325.286 56.0466 324.552 54.7447 324 53.303C323.495 51.8612 323.219 50.2797 323.219 48.6049C323.219 46.8835 323.495 45.3485 324 43.9068ZM350.463 14.8369H346.236V38.5117H346.098C345.41 37.4884 344.582 36.6049 343.663 35.8602C342.745 35.1155 341.734 34.5117 340.723 34.0466C339.712 33.5816 338.656 33.2564 337.553 33.0233C336.496 32.7903 335.439 32.6981 334.474 32.6981C332.132 32.6981 329.972 33.1165 328.042 33.9078C326.113 34.7447 324.459 35.8146 323.035 37.2564C321.611 38.6515 320.508 40.3263 319.727 42.2797C318.946 44.233 318.532 46.3263 318.532 48.6049C318.532 50.8835 318.946 52.9767 319.727 54.9301C320.554 56.8369 321.611 58.5117 323.035 59.9534C324.413 61.3951 326.113 62.5117 328.042 63.3019C330.019 64.0922 332.132 64.5117 334.474 64.5117C335.44 64.5117 336.451 64.4184 337.553 64.1864C338.656 64 339.712 63.6282 340.723 63.1631C341.734 62.6981 342.745 62.0932 343.663 61.3496C344.629 60.6049 345.41 59.7214 346.098 58.6981H346.236V63.7214H350.463V14.8369ZM357.722 18.2786H358.688C359.101 18.3252 359.376 18.3718 359.561 18.5117C359.699 18.6515 359.791 18.8835 359.791 19.2097C359.791 19.4894 359.699 19.6748 359.47 19.8146C359.285 19.9544 359.01 20.0477 358.689 20.0477H357.723V18.2807L357.722 18.2786ZM357.722 21.0233H358.826C359.193 21.0233 359.469 21.1165 359.606 21.2564C359.744 21.3962 359.836 21.6282 359.836 22C359.836 22.7437 359.882 23.2097 359.929 23.3485H360.985V23.2553C360.939 23.1155 360.893 22.9767 360.893 22.8369C360.847 22.6971 360.847 22.4651 360.847 22.0466C360.847 21.6282 360.802 21.3485 360.664 21.0699C360.526 20.7913 360.343 20.6049 360.021 20.4651C360.572 20.1864 360.847 19.767 360.847 19.2087C360.847 18.6038 360.664 18.1854 360.25 17.8602C359.836 17.535 359.285 17.3951 358.596 17.3951H356.666V23.3485H357.722V20.9767V21.0233ZM362.317 22.6515C361.949 23.303 361.489 23.8146 360.846 24.2331C360.203 24.6515 359.514 24.8379 358.779 24.8379C358.044 24.8379 357.355 24.6059 356.712 24.2331C356.068 23.8612 355.608 23.303 355.242 22.6515C354.874 22 354.691 21.2564 354.691 20.4651C354.691 19.6738 354.874 18.9301 355.242 18.2786C355.61 17.6271 356.069 17.0689 356.712 16.6971C357.309 16.3252 357.998 16.1388 358.733 16.1388C359.469 16.1388 360.157 16.3252 360.801 16.7437C361.444 17.1155 361.949 17.6738 362.27 18.3252C362.591 18.9767 362.776 19.6738 362.776 20.4651C362.776 21.2564 362.593 21.9534 362.317 22.6515ZM354.461 23.0699C354.921 23.8602 355.517 24.5117 356.253 24.9767C357.034 25.4418 357.86 25.6748 358.733 25.6748C359.652 25.6748 360.48 25.4418 361.214 24.9767C361.995 24.5117 362.592 23.8602 363.006 23.0699C363.419 22.2797 363.649 21.3951 363.649 20.4651C363.649 19.535 363.419 18.6515 363.006 17.8602C362.546 17.0699 361.995 16.4184 361.214 15.9534C360.433 15.4884 359.652 15.2553 358.733 15.2553C357.815 15.2553 357.034 15.4884 356.253 15.9534C355.472 16.4184 354.874 17.0699 354.461 17.8602C354.048 18.6505 353.818 19.535 353.818 20.4651C353.818 21.3951 354.048 22.2786 354.461 23.0699Z" fill="white"></path></g><defs><clipPath id="clip0_10360_2540"><rect width="363.65" height="80" fill="white"></rect></clipPath></defs></svg> 